Coordinates
version=1
nRows=13
nColumns=63
inDegrees=yes

Units are S.I. units (second, meters, Newtons, ...)
If the header above contains a line with 'inDegrees', this indicates whether rotational values are in degrees (yes) or radians (no).

endheader
time	pelvis_tilt	pelvis_list	pelvis_rotation	pelvis_tx	pelvis_ty	pelvis_tz	hip_flexion_r	hip_adduction_r	hip_rotation_r	knee_angle_r	knee_angle_r_beta	ankle_angle_r	subtalar_angle_r	mtp_angle_r	hip_flexion_l	hip_adduction_l	hip_rotation_l	knee_angle_l	knee_angle_l_beta	ankle_angle_l	subtalar_angle_l	mtp_angle_l	L5_S1_Flex_Ext	L5_S1_Lat_Bending	L5_S1_axial_rotation	L4_L5_Flex_Ext	L4_L5_Lat_Bending	L4_L5_axial_rotation	L3_L4_Flex_Ext	L3_L4_Lat_Bending	L3_L4_axial_rotation	L2_L3_Flex_Ext	L2_L3_Lat_Bending	L2_L3_axial_rotation	L1_L2_Flex_Ext	L1_L2_Lat_Bending	L1_L2_axial_rotation	L1_T12_Flex_Ext	L1_T12_Lat_Bending	L1_T12_axial_rotation	Abs_r3	Abs_r2	Abs_r1	Abs_t1	Abs_t2	neck_flexion	neck_bending	neck_rotation	arm_flex_r	arm_add_r	arm_rot_r	elbow_flex_r	pro_sup_r	wrist_flex_r	wrist_dev_r	arm_flex_l	arm_add_l	arm_rot_l	elbow_flex_l	pro_sup_l	wrist_flex_l	wrist_dev_l
1.237288	2.621001	-5.165036	92.916837	0.178038	0.691888	0.491601	-0.176947	4.848928	-10.785862	9.121643	0.159203	30.395554	-0.668005	0.000000	-2.077126	-3.159847	-5.064097	6.301589	0.109983	30.919402	9.188553	0.000000	0.014896	0.749492	-1.491088	0.027663	0.996824	-1.584281	0.024472	1.822314	-1.584281	0.017024	1.822314	-1.304702	0.013832	1.528364	-1.211509	0.008511	1.160963	-1.118316	0.106399	8.478401	-8.292985	0.000000	0.000000	19.014181	-0.892691	10.551950	15.672343	-10.549529	73.103011	40.159719	55.516935	13.010808	2.252887	8.513982	-5.598972	54.294774	41.961321	62.468812	2.096973	1.671752
1.254237	2.708016	-5.192059	92.924662	0.177896	0.692037	0.491594	-0.184653	4.936610	-10.809934	9.045614	0.157876	30.252332	-0.673336	0.000000	-2.102211	-3.220063	-4.879562	6.173180	0.107742	30.814194	8.953116	0.000000	0.018272	0.763910	-1.522977	0.033932	1.016000	-1.618163	0.030019	1.857370	-1.618163	0.020883	1.857370	-1.332605	0.016967	1.557765	-1.237419	0.010440	1.183296	-1.142233	0.130513	8.641499	-8.470340	0.000000	0.000000	19.304981	-0.903752	10.697550	15.782497	-10.570621	73.742006	40.143896	54.468070	12.768862	2.191381	8.217901	-5.509271	53.816241	41.988591	59.932264	1.746290	1.510585
1.271186	2.796068	-5.225272	92.961208	0.177682	0.692191	0.491662	-0.156443	5.022515	-10.814760	9.004749	0.157163	30.166838	-0.704587	0.000000	-2.126949	-3.281547	-4.686066	6.015313	0.104987	30.685558	8.748365	0.000000	0.021410	0.778788	-1.554008	0.039761	1.035788	-1.651133	0.035175	1.893545	-1.651133	0.024470	1.893545	-1.359757	0.019881	1.588104	-1.262631	0.012234	1.206342	-1.165506	0.152931	8.809803	-8.642926	0.000000	0.000000	19.594426	-0.898617	10.861310	15.849369	-10.595264	74.236142	40.126138	53.527098	12.508033	2.107460	7.993934	-5.410641	53.549560	41.949497	57.776980	1.387170	1.223818
1.288136	2.883859	-5.254447	93.039506	0.177384	0.692357	0.491803	-0.112365	5.108642	-10.790319	8.980909	0.156746	30.127224	-0.784067	0.000000	-2.160163	-3.344911	-4.493401	5.827923	0.101716	30.543234	8.612759	0.000000	0.023342	0.793632	-1.585161	0.043349	1.055531	-1.684234	0.038349	1.929637	-1.684234	0.026678	1.929637	-1.387016	0.021675	1.618375	-1.287943	0.013338	1.229336	-1.188871	0.166730	8.977725	-8.816190	0.000000	0.000000	19.859464	-0.867040	11.033868	15.857841	-10.620636	74.522624	40.100432	52.854474	12.246167	1.979415	7.851750	-5.310865	53.473005	41.867352	56.066926	1.086222	0.903712
1.305085	2.966490	-5.277554	93.166181	0.176994	0.692532	0.492022	-0.056016	5.189857	-10.746963	8.973827	0.156623	30.125924	-0.916793	0.000000	-2.198197	-3.407707	-4.370829	5.620480	0.098096	30.410717	8.651266	0.000000	0.024458	0.807524	-1.615900	0.045421	1.074006	-1.716894	0.040182	1.963413	-1.716894	0.027953	1.963413	-1.413913	0.022712	1.646702	-1.312919	0.013975	1.250854	-1.211925	0.174702	9.134869	-8.987153	0.000000	0.000000	20.084331	-0.830415	11.181157	15.814798	-10.647982	74.629843	40.059636	52.371693	12.010356	1.804912	7.797769	-5.207388	53.569099	41.727261	54.841624	0.902420	0.529884
1.322034	3.039625	-5.286478	93.350311	0.176486	0.692719	0.492331	-0.000545	5.252970	-10.800620	8.982542	0.156775	30.178366	-0.970133	0.000000	-2.252111	-3.458912	-4.124126	5.383644	0.093962	30.251971	8.612246	0.000000	0.023722	0.819859	-1.646254	0.044054	1.090413	-1.749144	0.038973	1.993405	-1.749144	0.027112	1.993405	-1.440472	0.022028	1.671857	-1.337581	0.013555	1.269962	-1.234690	0.169443	9.274410	-9.155968	0.000000	0.000000	20.255580	-0.789724	11.284513	15.724807	-10.685538	74.557497	40.016947	52.084381	11.796592	1.602256	7.856546	-5.109284	53.906192	41.543440	54.049090	0.766458	0.133646
1.338983	3.099299	-5.279463	93.589430	0.175879	0.692913	0.492723	0.047228	5.298649	-10.918171	9.000001	0.157080	30.263132	-0.990861	0.000000	-2.318526	-3.497380	-3.775448	5.132095	0.089572	30.083746	8.520276	0.000000	0.020868	0.829501	-1.675615	0.038754	1.103236	-1.780341	0.034284	2.016848	-1.780341	0.023850	2.016848	-1.466163	0.019378	1.691518	-1.361437	0.011924	1.284897	-1.256711	0.149056	9.383479	-9.319267	0.000000	0.000000	20.369811	-0.780002	11.264153	15.555750	-10.721606	74.173508	39.979064	52.155043	11.654670	1.429963	7.968614	-4.997309	54.258518	41.317659	53.661078	0.799804	-0.212163
1.355932	3.145220	-5.281054	93.855577	0.175214	0.693079	0.493189	0.119602	5.320746	-11.085593	9.042824	0.157827	30.391593	-0.966571	0.000000	-2.371769	-3.519078	-3.339063	4.874197	0.085071	29.909157	8.363191	0.000000	0.019689	0.836567	-1.699973	0.036564	1.112634	-1.806221	0.032347	2.034029	-1.806221	0.022503	2.034029	-1.487476	0.018283	1.705927	-1.381228	0.011250	1.295842	-1.274980	0.140636	9.463412	-9.454739	0.000000	0.000000	20.431575	-0.788770	11.151674	15.317813	-10.764116	73.533562	39.961615	52.518308	11.552000	1.309964	8.134236	-4.885023	54.667326	41.077962	53.494869	0.940402	-0.433163
1.372881	3.175458	-5.265997	94.144699	0.174495	0.693258	0.493730	0.179334	5.319994	-11.322586	9.088548	0.158625	30.557847	-0.856940	0.000000	-2.440765	-3.522738	-2.813191	4.606667	0.080402	29.722964	8.119130	0.000000	0.015505	0.840852	-1.718437	0.028794	1.118333	-1.825840	0.025473	2.044448	-1.825840	0.017720	2.044448	-1.503633	0.014398	1.714666	-1.396230	0.008859	1.302480	-1.288828	0.110748	9.511887	-9.557433	0.000000	0.000000	20.443266	-0.824295	10.918581	15.029455	-10.815592	72.688281	39.974381	53.042371	11.440497	1.253068	8.372241	-4.773019	55.151974	40.815570	53.562925	1.141267	-0.632125
1.389831	3.200507	-5.260966	94.472102	0.173711	0.693407	0.494313	0.248819	5.310319	-11.592553	9.126256	0.159283	30.746144	-0.727988	0.000000	-2.488578	-3.520777	-2.209393	4.346141	0.075854	29.546695	7.832211	0.000000	0.012481	0.844369	-1.748339	0.023179	1.123010	-1.857610	0.020506	2.052998	-1.857610	0.014265	2.052998	-1.529796	0.011590	1.721836	-1.420525	0.007132	1.307927	-1.311254	0.089153	9.551667	-9.723735	0.000000	0.000000	20.431531	-0.871575	10.687899	14.762214	-10.858190	71.842666	39.992245	53.635404	11.343944	1.259279	8.585405	-4.676809	55.583060	40.617409	53.148749	1.273771	-0.726707
1.406780	3.216743	-5.261763	94.814301	0.172902	0.693532	0.494916	0.320008	5.286636	-11.911060	9.153779	0.159764	30.957846	-0.544034	0.000000	-2.524990	-3.509715	-1.542808	4.093047	0.071437	29.370597	7.484257	0.000000	0.009917	0.846812	-1.782765	0.018418	1.126260	-1.894188	0.016293	2.058938	-1.894188	0.011335	2.058938	-1.559920	0.009209	1.726818	-1.448497	0.005667	1.311711	-1.337074	0.070840	9.579303	-9.915205	0.000000	0.000000	20.413140	-0.945126	10.428386	14.485823	-10.898729	70.927208	40.042567	54.311150	11.217199	1.360987	8.806650	-4.608253	55.982901	40.482402	52.702770	1.366963	-0.801482
1.423729	3.225620	-5.278102	95.139252	0.172112	0.693611	0.495491	0.399918	5.251392	-12.233241	9.172663	0.160093	31.183578	-0.323697	0.000000	-2.542186	-3.491291	-0.900753	3.857598	0.067328	29.219441	7.159475	0.000000	0.008983	0.848818	-1.823265	0.016682	1.128928	-1.937219	0.014758	2.063816	-1.937219	0.010267	2.063816	-1.595356	0.008342	1.730910	-1.481402	0.005133	1.314819	-1.367448	0.064165	9.602001	-10.140450	0.000000	0.000000	20.421305	-1.019427	10.204461	14.219544	-10.930299	69.994236	40.119188	55.127692	11.086988	1.537447	8.945210	-4.551201	56.122738	40.450114	52.270483	1.408414	-0.809842
1.440678	3.232733	-5.309338	95.461420	0.171339	0.693640	0.496024	0.479895	5.218370	-12.543421	9.167198	0.159998	31.384433	-0.139339	0.000000	-2.535487	-3.471244	-0.258921	3.647434	0.063660	29.087977	6.821080	0.000000	0.009553	0.851319	-1.879444	0.017741	1.132254	-1.996909	0.015695	2.069896	-1.996909	0.010918	2.069896	-1.644513	0.008871	1.736009	-1.527048	0.005459	1.318693	-1.409583	0.068238	9.630288	-10.452903	0.000000	0.000000	20.457188	-1.046184	10.118377	14.050379	-10.937480	69.327866	40.177522	55.837831	10.976378	1.672898	8.967838	-4.514711	55.945840	40.537016	51.799566	1.419294	-0.787896
